<?xml version="1.0" standalone="no"?>
<!DOCTYPE svg PUBLIC "-//W3C//DTD SVG 20010904//EN"
 "http://www.w3.org/TR/2001/REC-SVG-20010904/DTD/svg10.dtd">
<svg version="1.0" xmlns="http://www.w3.org/2000/svg"
 width="175.000000pt" height="171.000000pt" viewBox="0 0 175.000000 171.000000"
 preserveAspectRatio="xMidYMid meet">
<metadata>
Created by potrace 1.15, written by Peter Selinger 2001-2017
</metadata>
<g transform="translate(0.000000,171.000000) scale(0.100000,-0.100000)"
fill="#000000" stroke="none">
<path d="M622 1567 c-6 -6 -21 -65 -33 -130 -23 -118 -24 -119 -59 -137 -50
-26 -99 -78 -111 -120 -6 -22 -9 -146 -7 -331 l3 -296 28 -40 c15 -22 49 -52
75 -66 l48 -26 23 -118 c12 -65 27 -124 33 -130 15 -18 441 -18 456 0 6 6 21
65 33 130 23 118 24 119 59 137 46 24 89 67 106 107 20 47 20 599 0 646 -17
40 -60 83 -106 107 -35 18 -36 19 -59 137 -12 65 -27 124 -33 130 -8 10 -66
13 -228 13 -162 0 -220 -3 -228 -13z m389 -167 l16 -80 -177 0 -177 0 16 80
15 80 146 0 146 0 15 -80z m145 -224 l34 -34 0 -272 0 -272 -34 -34 -34 -34
-272 0 -272 0 -34 34 -34 34 0 272 0 272 34 34 34 34 272 0 272 0 34 -34z
m-145 -836 l-15 -80 -146 0 -146 0 -15 80 -16 80 177 0 177 0 -16 -80z"/>
<path d="M672 1089 c-28 -14 -51 -36 -69 -66 -48 -83 -19 -206 69 -290 47 -45
147 -103 178 -103 14 0 53 16 86 36 119 71 173 146 182 249 4 56 1 69 -22 108
-43 75 -148 109 -218 73 -24 -13 -32 -13 -55 0 -40 20 -101 17 -151 -7z m131
-114 c17 -19 38 -35 47 -35 9 0 31 16 49 36 27 29 38 35 60 29 55 -13 74 -64
48 -128 -16 -36 -79 -97 -127 -122 -30 -15 -33 -15 -74 9 -91 53 -140 138
-116 200 9 25 38 44 68 45 8 1 28 -15 45 -34z"/>
</g>
</svg>
