<?xml version="1.0" standalone="no"?>
<!DOCTYPE svg PUBLIC "-//W3C//DTD SVG 20010904//EN"
 "http://www.w3.org/TR/2001/REC-SVG-20010904/DTD/svg10.dtd">
<svg version="1.0" xmlns="http://www.w3.org/2000/svg"
 width="225.000000pt" height="225.000000pt" viewBox="0 0 225.000000 225.000000"
 preserveAspectRatio="xMidYMid meet">
<metadata>
Created by potrace 1.15, written by Peter Selinger 2001-2017
</metadata>
<g transform="translate(0.000000,225.000000) scale(0.100000,-0.100000)"
fill="#000000" stroke="none">
<path d="M360 2235 c-73 -21 -127 -54 -179 -110 -183 -199 -104 -525 149 -614
l51 -18 -1 -284 c-1 -318 8 -405 47 -486 36 -73 125 -155 200 -183 69 -27 265
-38 354 -22 125 24 227 99 281 209 29 60 33 78 38 182 l5 116 50 0 50 0 3
-268 c1 -159 -2 -284 -8 -306 -16 -62 -65 -120 -123 -147 -51 -23 -57 -24
-339 -24 l-286 0 -22 35 c-12 19 -43 48 -68 63 -44 25 -54 27 -167 27 -109 0
-124 -2 -162 -24 -24 -14 -55 -42 -69 -63 -15 -21 -35 -38 -46 -38 -27 0 -68
-45 -68 -75 0 -30 41 -75 68 -75 10 0 31 -19 49 -43 48 -69 86 -82 234 -82
121 0 127 1 168 28 23 16 51 43 62 62 l20 34 312 3 312 3 56 26 c106 50 185
143 214 254 12 47 15 118 15 337 l0 278 299 0 300 0 20 26 c21 26 21 36 21
561 l0 534 -25 24 -24 25 -534 0 c-525 0 -535 0 -561 -21 l-26 -20 0 -548 c0
-619 -5 -581 78 -581 l42 0 0 -94 c0 -133 -28 -190 -118 -244 -45 -26 -52 -27
-187 -27 -158 0 -193 11 -252 79 -55 62 -58 81 -58 429 l0 318 51 18 c100 34
175 106 226 216 19 41 23 67 23 145 0 88 -3 101 -33 162 -81 164 -270 251
-442 203z m173 -149 c59 -22 107 -65 133 -119 23 -50 23 -51 4 -64 -26 -18
-26 -59 0 -73 19 -10 19 -13 4 -48 -21 -50 -70 -101 -122 -124 l-44 -20 -15
21 c-8 12 -23 21 -33 21 -10 0 -25 -9 -33 -21 l-15 -21 -44 20 c-52 23 -101
74 -122 124 -15 35 -15 38 4 48 26 14 26 55 0 73 -19 13 -19 14 4 64 36 77
122 132 206 132 19 0 52 -6 73 -13z m747 -477 l0 -440 -52 3 -53 3 -3 425 c-1
234 0 431 3 438 3 7 24 12 55 12 l50 0 0 -441z m770 1 l0 -440 -310 0 -310 0
0 440 0 440 310 0 310 0 0 -440z m-1558 -1367 c22 -20 23 -56 2 -77 -23 -23
-170 -23 -196 1 -22 20 -23 51 -1 75 23 25 167 26 195 1z"/>
<path d="M432 2028 c-8 -8 -12 -45 -12 -100 0 -77 2 -89 20 -98 14 -8 26 -8
40 0 18 9 20 21 20 98 0 89 -8 112 -40 112 -9 0 -21 -5 -28 -12z"/>
</g>
</svg>
