<?xml version="1.0" standalone="no"?><!DOCTYPE svg PUBLIC "-//W3C//DTD SVG 1.1//EN" "http://www.w3.org/Graphics/SVG/1.1/DTD/svg11.dtd"><svg class="icon" height="512" viewBox="0 0 1024 1024" version="1.1" xmlns="http://www.w3.org/2000/svg"><path d="M511.981938 949.824151a22.276838 22.276838 0 0 0 22.276837-22.21663 22.276838 22.276838 0 0 0-44.553675 0 22.276838 22.276838 0 0 0 22.276838 22.21663M511.957855 450.991569c58.112443 0 105.375463-47.130564 105.375463-105.062384 0-70.611555-96.693517-150.386717-97.668882-151.181457a12.210115 12.210115 0 0 0-15.401122-0.012042c-3.997789 3.275297-97.65684 80.798692-97.656839 151.193499-0.012042 57.93182 47.250979 105.062383 105.35138 105.062384m-3.480004-227.801738l3.480004-3.178965 3.480003 3.178965c18.206799 16.665483 77.631769 74.777925 77.631769 122.727313 0 44.577758-36.389515 80.846859-81.111772 80.846858-44.710215 0-81.075648-36.2691-81.075648-80.846858-0.024083-47.949388 59.388845-106.06183 77.595644-122.727313M717.217841 122.715272H306.758076c-6.695093 0-12.137866 5.430732-12.137866 12.101741v375.695858c0 6.67101 5.442773 12.101742 12.137866 12.101741h410.471807c6.695093 0 12.137866-5.430732 12.137866-12.101741v-375.695858a12.161949 12.161949 0 0 0-12.149908-12.101741m-12.125824 375.707899H318.895942v-351.492375h386.196075v351.492375zM731.149896 3.600419H292.826021c-62.820682 0-113.924952 50.971813-113.924952 113.623913v548.768824c0 62.652101 51.10427 113.635955 113.924952 113.635955h126.135067v228.656687c0 6.67101 5.442773 12.101742 12.137867 12.101742h161.765966c6.683051 0 12.125825-5.430732 12.125824-12.101742v-228.668728H731.161937c62.820682 0 113.924952-50.971813 113.924953-113.623914V117.236374C845.074848 54.584273 793.98262 3.600419 731.149896 3.600419m-150.422841 992.583638H443.236821V859.043027h137.502275v137.14103h-0.012041z m0-161.344513H443.236821V700.191112h137.502275V834.839544h-0.012041z m240.108185-163.716694h-0.15654c-2.673221 46.925858-41.808206 84.290737-89.516763 84.290737H604.990745v-55.210433h62.387187c6.695093 0 12.137866-5.430732 12.137867-12.101742 0-6.67101-5.442773-12.101742-12.137867-12.101741h-310.791989c-6.695093 0-12.137866 5.430732-12.137866 12.101741 0 6.67101 5.442773 12.101742 12.137866 12.101742h62.387187v55.222474H292.838063c-49.430497 0-89.661261-40.110349-89.661262-89.42043V117.260457c0-49.310081 40.218723-89.420431 89.661262-89.420431h438.335916c49.442538 0 89.661261 40.110349 89.661261 89.420431v553.862393z" /></svg>