<?xml version="1.0" standalone="no"?>
<!DOCTYPE svg PUBLIC "-//W3C//DTD SVG 20010904//EN"
 "http://www.w3.org/TR/2001/REC-SVG-20010904/DTD/svg10.dtd">
<svg version="1.0" xmlns="http://www.w3.org/2000/svg"
 width="200.000000pt" height="200.000000pt" viewBox="0 0 200.000000 200.000000"
 preserveAspectRatio="xMidYMid meet">
<metadata>
Created by potrace 1.15, written by Peter Selinger 2001-2017
</metadata>
<g transform="translate(0.000000,200.000000) scale(0.100000,-0.100000)"
fill="#000000" stroke="none">
<path d="M912 1863 c-48 -21 -105 -71 -130 -117 -15 -28 -17 -78 -20 -485 l-3
-455 -40 -44 c-107 -115 -132 -295 -62 -438 36 -73 125 -155 200 -185 44 -17
79 -23 148 -23 81 -1 97 2 157 31 237 112 301 417 128 607 l-49 53 -3 455 -3
455 -30 49 c-60 96 -189 139 -293 97z m148 -89 c22 -9 50 -30 63 -48 22 -31
22 -34 27 -501 l5 -471 42 -38 c128 -115 131 -310 7 -430 -60 -58 -117 -81
-204 -80 -61 0 -84 5 -126 26 -87 46 -149 128 -163 220 -16 96 15 183 91 261
l48 49 0 455 c0 487 -1 481 52 530 47 44 95 52 158 27z"/>
<path d="M963 1165 c-17 -7 -36 -22 -42 -34 -7 -12 -11 -97 -11 -223 l-1 -203
-31 -20 c-120 -76 -140 -248 -42 -349 49 -50 95 -69 169 -69 132 -1 225 95
225 231 0 76 -30 135 -93 182 l-47 35 0 206 c0 200 -1 206 -22 226 -31 28 -67
34 -105 18z"/>
</g>
</svg>
