<?xml version="1.0" standalone="no"?>
<!DOCTYPE svg PUBLIC "-//W3C//DTD SVG 20010904//EN"
 "http://www.w3.org/TR/2001/REC-SVG-20010904/DTD/svg10.dtd">
<svg version="1.0" xmlns="http://www.w3.org/2000/svg"
 width="179.000000pt" height="176.000000pt" viewBox="0 0 179.000000 176.000000"
 preserveAspectRatio="xMidYMid meet">
<metadata>
Created by potrace 1.15, written by Peter Selinger 2001-2017
</metadata>
<g transform="translate(0.000000,176.000000) scale(0.100000,-0.100000)"
fill="#000000" stroke="none">
<path d="M343 1606 c-147 -47 -252 -178 -261 -326 -3 -55 13 -140 103 -540 59
-261 114 -490 122 -507 19 -40 84 -100 129 -119 27 -11 117 -14 462 -14 l428
0 54 33 c94 56 97 64 217 593 59 258 108 492 111 520 10 128 -84 276 -216 341
l-57 28 -525 2 c-415 2 -534 -1 -567 -11z m1121 -100 c81 -41 139 -124 152
-218 5 -34 -17 -148 -101 -523 -59 -264 -114 -493 -124 -510 -9 -16 -36 -40
-61 -53 -41 -20 -58 -22 -217 -22 l-173 0 0 144 c0 152 -7 176 -49 176 -36 0
-41 -20 -41 -173 l0 -149 -189 4 c-206 3 -216 6 -264 69 -26 35 -227 932 -227
1014 0 106 61 199 160 244 44 20 59 21 570 18 496 -2 527 -3 564 -21z"/>
<path d="M746 1484 c-108 -26 -256 -112 -256 -150 0 -18 178 -465 192 -481 8
-10 64 -13 218 -13 185 0 209 2 222 18 19 22 188 445 188 471 0 24 -56 74
-121 107 -119 60 -308 81 -443 48z m315 -92 c69 -19 162 -68 157 -81 -2 -5
-37 -92 -78 -195 l-75 -186 -163 2 -164 3 -74 185 c-41 102 -72 190 -70 197 6
16 77 52 146 74 76 25 234 25 321 1z"/>
<path d="M757 1322 c-10 -10 -17 -23 -17 -28 0 -5 20 -62 45 -127 25 -66 45
-131 45 -146 0 -30 36 -71 62 -71 53 0 80 78 39 111 -13 11 -40 66 -65 135
-38 103 -63 144 -86 144 -4 0 -14 -8 -23 -18z"/>
</g>
</svg>
