<?xml version="1.0" standalone="no"?>
<!DOCTYPE svg PUBLIC "-//W3C//DTD SVG 20010904//EN"
 "http://www.w3.org/TR/2001/REC-SVG-20010904/DTD/svg10.dtd">
<svg version="1.0" xmlns="http://www.w3.org/2000/svg"
 width="116.000000pt" height="144.000000pt" viewBox="0 0 116.000000 144.000000"
 preserveAspectRatio="xMidYMid meet">
<metadata>
Created by potrace 1.15, written by Peter Selinger 2001-2017
</metadata>
<g transform="translate(0.000000,144.000000) scale(0.100000,-0.100000)"
fill="#000000" stroke="none">
<path d="M90 1373 c0 -95 68 -163 160 -163 25 0 85 11 135 25 49 14 106 25
126 25 67 0 119 -65 119 -149 0 -59 -8 -71 -45 -71 -18 0 -39 -8 -47 -17 -9
-10 -26 -64 -39 -121 -19 -87 -20 -106 -9 -126 24 -46 -40 -236 -80 -236 -5 0
-18 20 -29 45 -23 51 -77 134 -99 153 -22 17 -77 15 -96 -4 -30 -30 -30 -61 2
-121 16 -32 36 -80 45 -108 8 -27 26 -77 40 -110 15 -35 32 -107 41 -175 29
-202 17 -190 185 -190 144 0 145 0 164 74 8 30 33 69 79 123 l67 78 131 43
c141 47 153 57 148 120 -2 28 -10 40 -30 52 -25 14 -35 13 -114 -8 -48 -13
-88 -21 -90 -19 -2 2 32 43 76 93 44 49 83 98 86 109 12 47 -30 95 -82 95 -8
0 -40 -24 -71 -52 l-56 -53 42 76 c48 88 50 111 16 144 -46 47 -97 28 -138
-50 -20 -37 -20 -27 -2 49 16 67 7 102 -27 111 -22 6 -23 11 -23 88 0 105 -22
152 -86 185 -37 20 -54 23 -104 18 -33 -3 -89 -15 -123 -26 -142 -45 -210 -15
-228 100 -5 30 -11 40 -25 40 -16 0 -19 -8 -19 -47z m543 -404 c22 -6 37 -16
37 -25 0 -37 -35 -150 -51 -164 -11 -9 -24 -48 -34 -99 -16 -81 -16 -85 1 -98
38 -28 54 -12 135 132 43 77 80 145 82 150 3 7 8 7 15 0 7 -7 -13 -53 -64
-149 -41 -77 -74 -150 -74 -163 0 -13 9 -27 21 -34 20 -10 32 -1 134 101 62
62 115 108 118 103 4 -6 -43 -65 -103 -132 -61 -66 -110 -125 -110 -130 0 -5
9 -19 19 -32 l19 -24 109 29 c59 16 116 31 126 33 10 3 17 0 17 -8 0 -9 -46
-30 -128 -57 l-127 -43 -80 -90 c-61 -69 -82 -100 -87 -130 -4 -22 -10 -44
-13 -49 -7 -11 -175 -13 -191 -2 -6 4 -19 65 -29 137 -11 81 -26 150 -41 183
-13 30 -33 84 -44 120 -11 37 -31 86 -44 109 -15 26 -21 45 -15 49 6 3 12 4
13 3 22 -29 69 -105 90 -146 44 -87 80 -94 142 -28 38 42 45 57 70 161 27 108
27 117 12 128 -15 11 -16 18 -4 67 8 30 17 66 20 82 7 31 7 31 59 16z"/>
</g>
</svg>
